<svg xmlns="http://www.w3.org/2000/svg" xmlns:xlink="http://www.w3.org/1999/xlink" style="vertical-align:-1.755ex" width="62.449ex" height="5.509ex" viewBox="0 -1616.6 26887.5 2372"><defs><path id="g" stroke-width="1" d="M52 289q7 42 54 97t116 56q35 0 64-18t43-45q42 63 101 63 37 0 64-22t28-59q0-29-14-47t-27-22-23-4q-19 0-31 11t-12 29q0 46 50 63-11 13-40 13-13 0-19-2-38-16-56-66-60-221-60-258 0-28 16-40t35-12q37 0 73 33t49 81q3 10 6 11t16 2h4q15 0 15-8 0-1-2-11-16-57-62-101T333-11q-70 0-106 63-41-62-94-62h-6q-49 0-70 26T35 71q0 32 19 52t45 20q43 0 43-42 0-20-12-35t-23-20-13-5l-3-1q0-1 6-4t16-7 19-3q36 0 62 45 9 16 23 68t28 108 16 66q5 27 5 39 0 28-15 40t-34 12q-40 0-75-32t-49-82q-2-9-5-10t-16-2H58q-6 6-6 11z"/><path id="a" stroke-width="1" d="M131 289q0 32 16 65t56 61 97 27q62 0 90-27t29-60q0-32-17-47t-38-16q-13 0-24 8t-12 26q0 16 9 28t17 18 13 6q1 0 1 1 0 3-7 9t-25 11-39 6q-48 0-70-26t-23-53q0-25 19-35t55-17 52-15q66-29 66-96 0-28-11-56t-33-56-63-44-94-17q-77 0-109 29T53 87q0 39 21 56t44 17q15 0 28-9t14-31q0-26-18-44t-31-18q-2-1-3-1t-1-2q1-3 8-8t31-13 55-7q36 0 62 11t38 28 17 31 5 25q0 28-21 42t-48 17-59 15-47 35q-17 25-17 58z"/><path id="c" stroke-width="1" d="M56 347q0 13 14 20h637q15-8 15-20 0-11-14-19l-318-1H72q-16 5-16 20zm0-194q0 15 16 20h636q14-10 14-20 0-13-15-20H70q-14 7-14 20z"/><path id="d" stroke-width="1" d="M94 250q0 69 10 131t23 107 37 88 38 67 42 52 33 34 25 21h17q14 0 14-9 0-3-17-21t-41-53-49-86-42-138-17-193 17-192 41-139 49-86 42-53 17-21q0-9-15-9h-16l-28 24q-94 85-137 212T94 250z"/><path id="e" stroke-width="1" d="M289 629q0 6-57 8-24 0-31 1t-7 10q0 1 2 11 1 3 2 7t1 5 2 5 2 3 4 2 5 2 8 0 12 1h30q24 0 45-1h91q12 0 16-5 1-4 37-282l36-279 23 37q24 36 64 100t88 140q175 279 177 281l3 3q2 2 4 3l6 2h136q23 0 29 1 34 0 34-11 0-5-3-17t-3-13q-4-6-37-6-40-1-51-3t-18-11q-3-5-72-283T797 59q0-4 1-5t7-4 17-2 33-2h31q6-9 6-11 0-16-7-30-5-5-16-5-5 0-41 1t-92 1h-92q-31 0-35-1-17 0-17 10 0 2 2 14 4 16 8 18t23 3q27 0 60 3 14 3 19 12 2 4 38 146t71 283 35 141L654 322Q458 10 453 5l-4-2q-5-3-16-3-15 0-18 7-2 4-41 310l-39 307-68-270Q200 88 200 79q6-33 72-33h10q6-5 7-9t-3-18q-4-16-8-18-4-1-11-1h-12q-10 0-34 1t-64 1q-30 0-62-1T58 0Q43 0 39 2t-4 9q0 2 3 14t5 15q2 6 22 6 70 0 89 40 4 6 69 268t66 275z"/><path id="f" stroke-width="1" d="M84 237v13l14 20h581q15-8 15-20t-15-20H98q-14 7-14 20z"/><path id="b" stroke-width="1" d="M109 429q-27 0-43 18t-16 44q0 71 53 123t132 52q91 0 152-56t62-145q0-43-20-82t-48-68-80-74q-36-31-100-92l-59-56 76-1q157 0 167 5 7 2 24 89v3h40v-3q-1-3-13-91T421 3V0H50v31q0 7 6 15t30 35q29 32 50 56 9 10 34 37t34 37 29 33 28 34 23 30 21 32 15 29 13 32 7 30 3 33q0 63-34 109t-97 46q-33 0-58-17t-35-33-10-19q0-1 5-1 18 0 37-14t19-46q0-25-16-42t-45-18z"/><path id="h" stroke-width="1" d="M213 578l-13-5q-14-5-40-10t-58-7H83v46h19q47 2 87 15t56 24 28 22q2 3 12 3 9 0 17-6V361l1-300q7-7 12-9t24-4 62-2h26V0h-11q-21 3-159 3-136 0-157-3H88v46h64q16 0 25 1t16 3 8 2 6 5 6 4v517z"/><path id="i" stroke-width="1" d="M60 749l4 1h22l28-24q94-85 137-212t43-264q0-68-10-131T261 12t-37-88-38-67-41-51-32-33-23-19l-4-4H63q-3 0-5 3t-3 9q1 1 11 13Q221-64 221 250T66 725q-10 12-11 13 0 8 5 11z"/><path id="j" stroke-width="1" d="M56 237v13l14 20h299v150l1 150q10 13 19 13 13 0 20-15V270h298q15-8 15-20t-15-20H409V-68q-8-14-18-14h-4q-12 0-18 14v298H70q-14 7-14 20z"/><path id="k" stroke-width="1" d="M127 463q-27 0-42 17t-16 44q0 55 48 98t116 43q35 0 44-1 74-12 113-53t40-89q0-52-34-101t-94-71l-3-2q0-1 9-3t29-9 38-21q82-53 82-140 0-79-62-138T238-22q-80 0-138 43T42 130q0 28 18 45t45 18q28 0 46-18t18-45q0-11-3-20t-7-16-11-12-12-8-10-4-8-3l-4-1q51-45 124-45 55 0 83 53 17 33 17 101v20q0 95-64 127-15 6-61 7l-42 1-3 2q-2 3-2 16 0 18 8 18 28 0 58 5 34 5 62 42t28 112v8q0 57-35 79-22 14-47 14-32 0-59-11t-38-23-11-12h3q3-1 8-2t10-5 12-7 10-11 8-15 3-20q0-22-14-39t-45-18z"/><path id="l" stroke-width="1" d="M78 250q0 24 17 42t43 18q24 0 42-16t19-43q0-25-17-43t-43-18-43 17-18 43zm447 0q0 24 17 42t43 18q24 0 42-16t19-43q0-25-17-43t-43-18-43 17-18 43zm447 0q0 24 17 42t43 18q24 0 42-16t19-43q0-25-17-43t-43-18-43 17-18 43z"/><path id="m" stroke-width="1" d="M21 287q1 6 3 16t12 38 20 47 33 37 46 17q36 0 60-18t30-34 6-21q0-2 1-2l11 11q61 64 139 64 54 0 87-27t34-79-38-157-38-127q0-26 17-26 6 0 9 1 29 5 52 38t35 80q2 8 20 8 20 0 20-8 0-1-4-15-8-29-22-57t-46-56-69-27q-47 0-68 27t-21 56q0 19 36 120t37 152q0 59-44 59h-5q-86 0-145-101l-7-12-33-134Q156 26 151 16q-13-27-43-27-13 0-21 6T76 7t-2 10q0 13 38 163t40 163q1 5 1 23 0 39-24 39-38 0-63-100-6-20-6-21-2-6-19-6H27q-6 6-6 9z"/></defs><g fill="currentColor" stroke="currentColor" stroke-width="0" transform="scale(1 -1)"><use xlink:href="#a"/><use x="663" y="583" transform="scale(.707)" xlink:href="#b"/><use x="1201" xlink:href="#c"/><g transform="translate(2376)"><path stroke="none" d="M0 220h24390v60H0z"/><g transform="translate(60 725)"><use xlink:href="#d"/><use x="389" xlink:href="#e"/><use x="1663" xlink:href="#f"/><g transform="translate(2663)"><use xlink:href="#g"/><use x="809" y="-213" transform="scale(.707)" xlink:href="#h"/></g><g transform="translate(3690)"><use xlink:href="#i"/><use x="550" y="513" transform="scale(.707)" xlink:href="#b"/></g><use x="4755" xlink:href="#j"/><use x="5756" xlink:href="#d"/><use x="6146" xlink:href="#e"/><use x="7419" xlink:href="#f"/><g transform="translate(8420)"><use xlink:href="#g"/><use x="809" y="-213" transform="scale(.707)" xlink:href="#b"/></g><g transform="translate(9447)"><use xlink:href="#i"/><use x="550" y="513" transform="scale(.707)" xlink:href="#b"/></g><use x="10512" xlink:href="#j"/><use x="11513" xlink:href="#d"/><use x="11902" xlink:href="#e"/><use x="13176" xlink:href="#f"/><g transform="translate(14177)"><use xlink:href="#g"/><use x="809" y="-213" transform="scale(.707)" xlink:href="#k"/></g><g transform="translate(15203)"><use xlink:href="#i"/><use x="550" y="513" transform="scale(.707)" xlink:href="#b"/></g><use x="16269" xlink:href="#j"/><use x="17270" xlink:href="#l"/><use x="18664" xlink:href="#j"/><use x="19665" xlink:href="#d"/><use x="20055" xlink:href="#e"/><use x="21328" xlink:href="#f"/><g transform="translate(22329)"><use xlink:href="#g"/><use x="809" y="-213" transform="scale(.707)" xlink:href="#m"/></g><g transform="translate(23426)"><use xlink:href="#i"/><use x="550" y="513" transform="scale(.707)" xlink:href="#b"/></g></g><use x="11894" y="-686" xlink:href="#m"/></g></g></svg>